<?xml version="1.0"?><svg xmlns="http://www.w3.org/2000/svg" xmlns:xlink="http://www.w3.org/1999/xlink" version="1.1" id="Layer_1" viewBox="0 0 55 55" style="enable-background:new 0 0 55 55;" xml:space="preserve"><style type="text/css">
	.st0{fill:none;stroke:#000000;stroke-width:1.5;stroke-linecap:round;stroke-linejoin:round;stroke-miterlimit:10;}
	.st1{fill:#FFFFFF;stroke:#000000;stroke-width:1.5;stroke-linecap:round;stroke-linejoin:round;stroke-miterlimit:10;}
	.st2{fill:none;stroke:#000000;stroke-linecap:round;stroke-linejoin:round;stroke-miterlimit:10;}
</style><g><path class="st0" d="M5.3594971,32.1154861h4.8309937c0.552002,0,1-0.447998,1-1v-9.5539856c0-0.552002-0.447998-1-1-1H5.3594971   c-0.552002,0-1,0.447998-1,1v9.5539856C4.3594971,31.6674881,4.8074951,32.1154861,5.3594971,32.1154861z"/><path class="st0" d="M25.7122192,20.5617905h1.9029541c0.6260376,0,1.1329956,0.5070038,1.1329956,1.1330109v9.2890015   c0,0.6259918-0.506958,1.1329956-1.1329956,1.1329956h-9.6519775c-0.625,0-1.132019-0.5070038-1.132019-1.1329956v-9.2890015   c0-0.6260071,0.507019-1.1330109,1.132019-1.1330109h1.9039917H25.7122192z"/><rect x="11.2003784" y="22.5897903" class="st0" width="5.6300049" height="7.4989929"/><path class="st0" d="M49.6206665,35.2546921l-7.1030273,2.3900146l-1.875-5.0180054   c-0.5209961-1.5180054-1.947998-2.5379944-3.5570068-2.5379944h-8.3369751v-7.4990082h13.7179565   c0.8040161,0,1.5630493,0.2599945,2.1870117,0.7019958c0.6229858,0.4420013,1.1099854,1.076004,1.3699951,1.8470001   L49.6206665,35.2546921z"/><line class="st0" x1="20.8184204" y1="20.5617905" x2="20.8184204" y2="15.3057938"/><line class="st0" x1="24.7606201" y1="20.5617905" x2="24.7606201" y2="15.3057938"/><path class="st0" d="M26.4598999,12.2466965c0,0.5660095-0.125,1.1100006-0.3630371,1.5860138   c-0.1690063,0.3629913-0.3959961,0.7019958-0.6790161,0.9859924c-0.6690063,0.6790009-1.5979614,1.0980072-2.6279907,1.0980072   c-1.0310059,0-1.9599609-0.4190063-2.6289673-1.0980072c-0.2709961-0.2839966-0.5090332-0.6119995-0.6680298-0.9750061   c-0.2379761-0.4869995-0.3739624-1.0309906-0.3739624-1.5970001c0-0.6459961,0.1589966-1.2459869,0.4530029-1.7669983   c0.6229858-1.1329956,1.8359985-1.9029999,3.2179565-1.9029999c1.382019,0,2.5820313,0.7590027,3.2050171,1.8910065   C26.289856,10.9897079,26.4598999,11.5896988,26.4598999,12.2466965z"/><path class="st0" d="M19.5720825,10.4794998c-0.2950439,0.5210114-0.4530029,1.1220093-0.4530029,1.7670135   c0,0.5670013,0.1359863,1.1100006,0.3739624,1.5979919c-1.3369751,0.0449982-2.6849976,0.1349945-4.0440063,0.2599945   c-1.1449585,0.102005-2.1409912-0.7819977-2.1409912-1.9369965c0-1.0879974,0.8939819-1.9369965,1.9589844-1.9369965   c0.0460205,0,0.1020508,0.0110016,0.1589966,0.0110016C16.7970581,10.3544998,18.1900635,10.4345016,19.5720825,10.4794998z"/><path class="st0" d="M32.2713013,12.1561966c0,1.0990143-0.8950195,1.9480133-1.9710083,1.9480133   c-0.0570068,0-0.125-0.0110016-0.1810303-0.0110016c-1.3369751-0.1240082-2.6740112-0.20401-4.0219727-0.2600098   c0.2379761-0.4759979,0.3629761-1.019989,0.3629761-1.5859985c0-0.6569977-0.1699829-1.2579956-0.4649658-1.7789917   c1.381958-0.0449982,2.7639771-0.125,4.157959-0.2380066C31.2972412,10.1402054,32.2713013,11.023201,32.2713013,12.1561966z"/><line class="st0" x1="41.4365234" y1="38.0310898" x2="50.6405029" y2="34.9090958"/><path class="st0" d="M46.5858154,40.289299l-1.6390381,2.8380127c-0.8449707,1.4649963,0.2120361,3.29599,1.9030151,3.29599   s2.7479858-1.8309937,1.9019775-3.29599l-1.6380005-2.8380127C46.9957886,40.0863113,46.7027588,40.0863113,46.5858154,40.289299z"/></g></svg>